<?xml version="1.0" encoding="iso-8859-1"?>
<!-- Generator: Adobe Illustrator 27.0.0, SVG Export Plug-In . SVG Version: 6.00 Build 0)  -->
<svg version="1.1" baseProfile="basic" id="&#x421;&#x43B;&#x43E;&#x439;_1"
	 xmlns="http://www.w3.org/2000/svg" xmlns:xlink="http://www.w3.org/1999/xlink" x="0px" y="0px" viewBox="0 0 24 24"
	 xml:space="preserve">
<path d="M21.612,17.714l-2.125-13c-0.059-0.358-0.307-0.657-0.649-0.78c-0.342-0.121-0.724-0.05-0.997,0.189l-3.247,2.845
	l-1.829-3.551c-0.166-0.321-0.492-0.528-0.853-0.541c-0.362-0.013-0.701,0.169-0.89,0.478L9.93,5.14L7.592,0.521
	c-0.191-0.377-0.603-0.585-1.019-0.54c-0.42,0.054-0.76,0.366-0.85,0.78l-3.7,17.026c-0.117,0.539,0.225,1.072,0.765,1.189
	c0.027,0.006,0.054,0.005,0.081,0.009c0.003,0.001,0.004,0.004,0.007,0.005l8.455,4.875C11.485,23.955,11.657,24,11.83,24
	c0.174,0,0.348-0.045,0.503-0.136l8.795-5.125C21.486,18.53,21.679,18.123,21.612,17.714z M11.801,5.915l1.242,2.411l-1.039,0.91
	l-1.012-1.998L11.801,5.915z M10.451,10.597l-3.244,2.842l2.56-4.193L10.451,10.597z M7.079,3.937l1.626,3.211l-3.607,5.907
	L7.079,3.937z M11.827,21.844l-6.742-3.887l7.357-6.446c0.007-0.008,0.016-0.012,0.023-0.02l5.339-4.677l1.724,10.543L11.827,21.844
	z"/>
</svg>